<svg width="16" height="16" viewBox="0 0 16 16" fill="none" xmlns="http://www.w3.org/2000/svg">
<path d="M9.5 8.99985C9.77609 8.99985 9.99991 9.22378 10 9.49985C10 9.77599 9.77614 9.99985 9.5 9.99985H6.5C6.22386 9.99985 6 9.77599 6 9.49985C6.00009 9.22378 6.22391 8.99985 6.5 8.99985H9.5Z" fill="black"/>
<path d="M9.5 6.99985C9.77609 6.99985 9.99991 7.22378 10 7.49985C10 7.77599 9.77614 7.99985 9.5 7.99985H6.5C6.22386 7.99985 6 7.77599 6 7.49985C6.00009 7.22378 6.22391 6.99985 6.5 6.99985H9.5Z" fill="black"/>
<path fill-rule="evenodd" clip-rule="evenodd" d="M9.55273 2.27621C9.67626 2.02934 9.9767 1.92916 10.2236 2.05258C10.4706 2.17605 10.5707 2.47651 10.4473 2.72348L10.083 3.45297C10.9661 3.8582 11.7107 4.5137 12.2266 5.32797L13.7764 4.55258C14.0233 4.42916 14.3237 4.52934 14.4473 4.77621C14.5708 5.02318 14.4706 5.3236 14.2236 5.44711L12.6748 6.22153C12.8851 6.77399 13 7.37358 13 7.99985V8.49985H14.5C14.7761 8.49985 14.9999 8.72378 15 8.99985C15 9.27599 14.7761 9.49985 14.5 9.49985H12.9756C12.8899 10.3624 12.5848 11.1606 12.1172 11.8377L13.7998 13.1004C14.0205 13.266 14.0657 13.5788 13.9004 13.7997C13.7348 14.0205 13.4211 14.0657 13.2002 13.9002L11.4688 12.6014C10.5697 13.4675 9.34692 13.9998 8 13.9998C6.65308 13.9998 5.43028 13.4675 4.53125 12.6014L2.7998 13.9002C2.5789 14.0657 2.26524 14.0205 2.09961 13.7997C1.93431 13.5788 1.97949 13.266 2.2002 13.1004L3.88281 11.8377C3.41524 11.1606 3.11006 10.3624 3.02441 9.49985H1.5C1.22386 9.49985 1 9.27599 1 8.99985C1.00009 8.72378 1.22391 8.49985 1.5 8.49985H3V7.99985C3.00002 7.37358 3.11491 6.77399 3.3252 6.22153L1.77637 5.44711C1.52942 5.3236 1.42925 5.02318 1.55273 4.77621C1.67626 4.52934 1.9767 4.42916 2.22363 4.55258L3.77344 5.32797C4.28943 4.51357 5.03466 3.85819 5.91797 3.45297L5.55273 2.72348C5.42934 2.47651 5.52942 2.17605 5.77637 2.05258C6.0233 1.92916 6.32374 2.02934 6.44727 2.27621L6.87305 3.12778C7.23526 3.04433 7.61245 2.99985 8 2.99985C8.38755 2.99985 8.76474 3.04433 9.12695 3.12778L9.55273 2.27621ZM8 3.99985C6.49037 3.99985 5.17609 4.83656 4.49512 6.07114C4.48768 6.12282 4.47189 6.1742 4.44727 6.22348C4.42246 6.27309 4.39072 6.3172 4.35352 6.35434C4.12664 6.85626 4.00002 7.41323 4 7.99985V8.99985C4 11.209 5.79086 12.9998 8 12.9998C10.2091 12.9998 12 11.209 12 8.99985V7.99985C12 7.41323 11.8734 6.85626 11.6465 6.35434C11.6093 6.3172 11.5775 6.27309 11.5527 6.22348C11.5281 6.1742 11.5123 6.12282 11.5049 6.07114C10.8239 4.83656 9.50963 3.99985 8 3.99985Z" fill="black"/>
</svg>
