<svg width="16" height="16" viewBox="0 0 16 16" fill="none" xmlns="http://www.w3.org/2000/svg">
<path fill-rule="evenodd" clip-rule="evenodd" d="M8 1C11.866 1 15 4.13401 15 8C15 11.866 11.866 15 8 15C4.13401 15 1 11.866 1 8C1 4.13401 4.13401 1 8 1ZM8 10.75C7.58579 10.75 7.25 11.0858 7.25 11.5C7.25 11.9142 7.58579 12.25 8 12.25C8.41421 12.25 8.75 11.9142 8.75 11.5C8.75 11.0858 8.41421 10.75 8 10.75ZM8 4C6.75736 4 5.75 5.00736 5.75 6.25C5.75 6.52614 5.97386 6.75 6.25 6.75C6.52614 6.75 6.75 6.52614 6.75 6.25C6.75 5.55964 7.30964 5 8 5C8.69036 5 9.25 5.55964 9.25 6.25C9.25 6.94036 8.69036 7.5 8 7.5C7.72386 7.5 7.5 7.72386 7.5 8V9.5C7.5 9.77614 7.72386 10 8 10C8.27614 10 8.5 9.77614 8.5 9.5V8.44434C9.50199 8.21697 10.25 7.32079 10.25 6.25C10.25 5.00736 9.24264 4 8 4Z" fill="black"/>
</svg>
