<svg width="16" height="16" viewBox="0 0 16 16" fill="none" xmlns="http://www.w3.org/2000/svg">
<path d="M6.75098 2C7.02693 2.00023 7.25095 2.224 7.25098 2.5V13.501C7.25098 13.777 7.02695 14.0007 6.75098 14.001C6.47481 14.001 6.25098 13.7771 6.25098 13.501V2.5C6.251 2.22385 6.47482 2 6.75098 2Z" fill="black"/>
<path d="M4.25 4C4.52609 4 4.74986 4.22395 4.75 4.5V11.501C4.74999 11.7771 4.52616 12.001 4.25 12.001C3.97398 12.0008 3.75001 11.777 3.75 11.501V4.5C3.75013 4.22404 3.97405 4.00016 4.25 4Z" fill="black"/>
<path d="M11.751 4C12.0271 4 12.2508 4.22394 12.251 4.5V11.501C12.251 11.7771 12.0271 12.001 11.751 12.001C11.4748 12.0009 11.251 11.7771 11.251 11.501V4.5C11.2511 4.22397 11.4749 4.00004 11.751 4Z" fill="black"/>
<path d="M1.75 6C2.02602 6 2.24976 6.22404 2.25 6.5V9.50098C2.24988 9.77704 2.02609 10.001 1.75 10.001C1.47393 10.0009 1.25012 9.77703 1.25 9.50098V6.5C1.25024 6.22405 1.474 6.00003 1.75 6Z" fill="black"/>
<path d="M9.25098 6C9.52692 6.0001 9.75073 6.2241 9.75098 6.5V9.50098C9.75085 9.77698 9.52699 10.0009 9.25098 10.001C8.97488 10.001 8.7511 9.77704 8.75098 9.50098V6.5C8.75122 6.22404 8.97496 6 9.25098 6Z" fill="black"/>
<path d="M14.251 6C14.527 6 14.7507 6.22404 14.751 6.5V9.50098C14.7509 9.77704 14.5271 10.001 14.251 10.001C13.975 10.0008 13.7511 9.77694 13.751 9.50098V6.5C13.7512 6.22414 13.9751 6.00017 14.251 6Z" fill="black"/>
</svg>
